<svg width="24" height="30" viewBox="0 0 24 30" fill="none" xmlns="http://www.w3.org/2000/svg">
<path d="M3.11873 24.9494H22.6103C22.817 24.9494 23.0155 24.8673 23.1615 24.721C23.3078 24.5747 23.3899 24.3765 23.3899 24.1696V0.779609C23.3899 0.572942 23.3078 0.374712 23.1615 0.228414C23.0155 0.0821152 22.817 0 22.6103 0H3.11873C2.29152 0 1.49835 0.328761 0.913391 0.913391C0.328483 1.4983 0 2.29152 0 3.11873V21.051C0 21.4815 0.349151 21.8306 0.779595 21.8306C1.21033 21.8306 1.55919 21.4815 1.55919 21.051V3.11873C1.55919 2.70513 1.72371 2.30864 2.01603 2.01606C2.30834 1.72374 2.70508 1.5595 3.11869 1.5595V23.3901C2.00433 23.3901 0.974825 23.9845 0.417922 24.9496C-0.139253 25.9143 -0.139253 27.1033 0.417922 28.068C0.974825 29.0331 2.00433 29.6275 3.11869 29.6275H22.6103C23.0408 29.6275 23.3899 29.2784 23.3899 28.8479C23.3899 28.4172 23.0407 28.068 22.6103 28.068H3.11869C2.56152 28.068 2.04679 27.7708 1.76834 27.2884C1.48962 26.806 1.48962 26.2116 1.76834 25.7292C2.04679 25.2469 2.56158 24.9497 3.11869 24.9497L3.11873 24.9494ZM4.67792 1.55949H21.8305V23.3901H4.67792V1.55949ZM10.1354 7.017H10.1357C10.1357 6.39674 10.3821 5.80177 10.8207 5.36314C11.2593 4.92452 11.8543 4.67788 12.4745 4.67788V3.89829C12.4745 3.46783 12.8237 3.11869 13.2541 3.11869C13.6849 3.11869 14.034 3.46784 14.034 3.89829V4.67788H14.7514H14.7511C15.1818 4.67788 15.531 5.02704 15.531 5.45776C15.531 5.88822 15.1818 6.23735 14.7511 6.23735H12.4745C12.0441 6.23735 11.695 6.58623 11.695 7.01695C11.695 7.44766 12.0441 7.79654 12.4745 7.79654H14.034C14.8696 7.79654 15.6417 8.2425 16.0596 8.96611C16.4773 9.68974 16.4773 10.5813 16.0596 11.3052C15.6417 12.0289 14.8696 12.4745 14.034 12.4745V13.2699C14.034 13.7004 13.6849 14.0495 13.2541 14.0495C12.8237 14.0495 12.4745 13.7004 12.4745 13.2699V12.4745H11.695C11.2642 12.4745 10.9154 12.1257 10.9154 11.6949C10.9154 11.2645 11.2642 10.9153 11.695 10.9153H14.0341C14.4645 10.9153 14.8137 10.5662 14.8137 10.1357C14.8137 9.70502 14.4645 9.35615 14.0341 9.35615H12.4746C11.8544 9.35615 11.2594 9.10951 10.8208 8.6709C10.3821 8.23228 10.1358 7.63728 10.1358 7.01703L10.1354 7.017ZM9.35583 16.373C9.35583 15.9425 9.70499 15.5934 10.1357 15.5934H16.3732H16.3729C16.8036 15.5934 17.1525 15.9425 17.1525 16.373C17.1525 16.8037 16.8036 17.1529 16.3729 17.1529H10.1354H10.1357C9.70498 17.1529 9.35583 16.8037 9.35583 16.373ZM18.7118 19.4917H18.7121C18.7121 19.6987 18.63 19.8969 18.4837 20.0432C18.3374 20.1892 18.1391 20.2713 17.9325 20.2713H8.5765C8.14604 20.2713 7.7969 19.9224 7.7969 19.4917C7.7969 19.0613 8.14605 18.7121 8.5765 18.7121H17.9325C18.1391 18.7121 18.3374 18.7943 18.4837 18.9405C18.63 19.0866 18.7121 19.2851 18.7121 19.4917L18.7118 19.4917Z" fill="white"/>
</svg>
