<svg width="132" height="29" viewBox="0 0 132 29" fill="none" xmlns="http://www.w3.org/2000/svg">
<path fill-rule="evenodd" clip-rule="evenodd" d="M15.8963 3.76966e-06C15.2691 3.76966e-06 14.895 0.223617 14.421 0.516143L14.3593 0.55457L14.3289 0.573593L14.3288 0.573646C13.8039 0.902584 12.6566 1.62155 10.9782 1.62155C9.30323 1.62155 8.15846 0.905541 7.63107 0.575682C7.59653 0.554076 7.56463 0.534126 7.53541 0.516143C7.06005 0.223617 6.68737 3.76966e-06 6.06012 3.76966e-06C5.74889 -0.00055157 5.44059 0.0603179 5.15293 0.179124C4.86526 0.29793 4.60386 0.472336 4.38372 0.692348C4.16358 0.91236 3.98902 1.17365 3.87004 1.46125C3.75106 1.74885 3.69001 2.0571 3.69038 2.36834V2.41193C3.68982 2.72329 3.75074 3.03169 3.86964 3.31945C3.98853 3.60721 4.16306 3.86867 4.38322 4.08883C4.60338 4.30899 4.86484 4.48353 5.1526 4.60242C5.44036 4.72131 5.74877 4.78223 6.06012 4.78167C6.68737 4.78167 7.06146 4.55806 7.53541 4.26553C7.56271 4.24868 7.59239 4.2301 7.62443 4.21005C8.1484 3.88204 9.30164 3.16012 10.9782 3.16012C12.6513 3.16012 13.8019 3.87903 14.3285 4.20799L14.3286 4.20805L14.3289 4.20824C14.3621 4.22898 14.3928 4.24817 14.421 4.26553L15.8963 3.76966e-06ZM15.8963 3.76966e-06C16.2077 -0.000552057 16.5161 0.0603637 16.8038 0.179257C17.0916 0.298151 17.353 0.472683 17.5732 0.692845C17.7934 0.913006 17.9679 1.17446 18.0868 1.46223C18.2057 1.74999 18.2666 2.05839 18.266 2.36974L15.8963 3.76966e-06ZM21.482 7.79977C20.8548 7.79977 20.4793 8.02198 20.0067 8.3145C19.9797 8.33123 19.9503 8.34967 19.9186 8.36958C19.396 8.69766 18.241 9.42273 16.5597 9.42273C14.8901 9.42273 13.7469 8.70892 13.2166 8.37785L13.2165 8.37776C13.1805 8.35526 13.1473 8.33453 13.1169 8.31591C12.6402 8.02339 12.2731 7.80118 11.6416 7.80118C11.331 7.80136 11.0234 7.86273 10.7365 7.98178C10.4496 8.10083 10.1889 8.27523 9.96936 8.49502C9.74984 8.71481 9.57575 8.97568 9.45704 9.26275C9.33833 9.54982 9.27732 9.85746 9.27751 10.1681V10.2103C9.27695 10.5215 9.33783 10.8298 9.45663 11.1175C9.57544 11.4052 9.74984 11.6666 9.96985 11.8867C10.1899 12.1068 10.4512 12.2814 10.7388 12.4004C11.0264 12.5194 11.3346 12.5804 11.6458 12.58C12.2731 12.58 12.6486 12.3564 13.1211 12.0639C13.1471 12.0478 13.1753 12.0301 13.2056 12.0111L13.2058 12.011C13.7269 11.6842 14.8843 10.9585 16.5639 10.9585C18.234 10.9585 19.3852 11.6759 19.9137 12.0053C19.9478 12.0266 19.9793 12.0462 20.0081 12.0639C20.4849 12.3564 20.852 12.58 21.4834 12.58C21.7947 12.5804 22.1029 12.5194 22.3905 12.4004C22.6781 12.2814 22.9394 12.1068 23.1594 11.8867C23.3794 11.6666 23.5538 11.4052 23.6726 11.1175C23.7914 10.8298 23.8523 10.5215 23.8518 10.2103V10.1681C23.8521 9.85687 23.7911 9.54862 23.6721 9.26102C23.5531 8.97342 23.3786 8.71213 23.1584 8.49212C22.9383 8.2721 22.6769 8.0977 22.3892 7.97889C22.1015 7.86009 21.7933 7.79922 21.482 7.79977ZM21.4821 23.3755C20.8549 23.3755 20.4794 23.5991 20.0068 23.8916C19.9808 23.9077 19.9526 23.9254 19.9222 23.9445C19.4011 24.2712 18.2437 24.997 16.5626 24.997C14.893 24.997 13.7449 24.2811 13.2158 23.9512C13.1812 23.9296 13.1492 23.9096 13.1198 23.8916C12.6431 23.5991 12.276 23.3755 11.6445 23.3755C11.3334 23.3751 11.0253 23.4361 10.7378 23.555C10.4503 23.6739 10.1891 23.8483 9.96906 24.0683C9.74907 24.2883 9.57463 24.5496 9.45574 24.8371C9.33685 25.1246 9.27585 25.4327 9.27622 25.7438V25.7874C9.27585 26.0985 9.33685 26.4067 9.45574 26.6942C9.57463 26.9817 9.74907 27.2429 9.96906 27.4629C10.1891 27.6829 10.4503 27.8573 10.7378 27.9762C11.0253 28.0951 11.3334 28.1561 11.6445 28.1558C12.2718 28.1558 12.6473 27.9321 13.1198 27.6396C13.1459 27.6235 13.1741 27.6058 13.2045 27.5867C13.7256 27.2599 14.883 26.5342 16.5626 26.5342C18.2327 26.5342 19.3839 27.2516 19.9125 27.5811C19.9465 27.6023 19.978 27.6219 20.0068 27.6396C20.4836 27.9321 20.8507 28.1558 21.4821 28.1558C21.7932 28.1561 22.1014 28.0951 22.3889 27.9762C22.6764 27.8573 22.9376 27.6829 23.1576 27.4629C23.3776 27.2429 23.552 26.9817 23.6709 26.6942C23.7898 26.4067 23.8508 26.0985 23.8505 25.7874V25.7438C23.8508 25.4327 23.7898 25.1246 23.6709 24.8371C23.552 24.5496 23.3776 24.2883 23.1576 24.0683C22.9376 23.8483 22.6764 23.6739 22.3889 23.555C22.1014 23.4361 21.7932 23.3751 21.4821 23.3755ZM14.421 16.0914C14.895 15.7989 15.2691 15.5753 15.8963 15.5753C16.2076 15.5749 16.5159 15.6359 16.8036 15.7549C17.0913 15.8739 17.3527 16.0484 17.5728 16.2685C17.7929 16.4887 17.9674 16.75 18.0864 17.0377C18.2054 17.3254 18.2664 17.6337 18.266 17.945V17.9872C18.2664 18.2984 18.2053 18.6067 18.0864 18.8943C17.9674 19.1819 17.7928 19.4432 17.5727 19.6632C17.3525 19.8832 17.0912 20.0576 16.8035 20.1764C16.5158 20.2952 16.2075 20.3561 15.8963 20.3555C15.2648 20.3555 14.8964 20.1333 14.421 19.8408C14.3923 19.8231 14.361 19.8036 14.3271 19.7824C13.7999 19.4529 12.6498 18.734 10.9782 18.734C9.30868 18.734 8.1581 19.4523 7.63106 19.7814C7.59648 19.803 7.56459 19.8229 7.53541 19.8408C7.06146 20.1319 6.68736 20.3555 6.06012 20.3555C5.74889 20.3561 5.44059 20.2952 5.15292 20.1764C4.86525 20.0576 4.60386 19.8832 4.38372 19.6632C4.16358 19.4432 3.98901 19.1819 3.87004 18.8943C3.75106 18.6067 3.69001 18.2984 3.69038 17.9872V17.945C3.69001 17.6337 3.75105 17.3254 3.87001 17.0377C3.98897 16.75 4.16351 16.4887 4.38363 16.2685C4.60376 16.0484 4.86514 15.8739 5.15282 15.7549C5.4405 15.6359 5.74882 15.5749 6.06012 15.5753C6.69158 15.5753 7.06005 15.7989 7.53541 16.0914C7.56373 16.1088 7.59458 16.1281 7.62794 16.149C8.15447 16.4779 9.30514 17.1968 10.9782 17.1968C12.6548 17.1968 13.808 16.4749 14.332 16.1469C14.364 16.1268 14.3937 16.1083 14.421 16.0914ZM24.7241 15.5753C24.2554 15.5753 23.7972 15.7143 23.4075 15.9746C23.0178 16.235 22.7141 16.6051 22.5347 17.0382C22.3554 17.4712 22.3084 17.9476 22.3999 18.4073C22.4913 18.867 22.717 19.2893 23.0484 19.6207C23.3798 19.9521 23.8021 20.1778 24.2618 20.2692C24.7215 20.3607 25.1979 20.3137 25.6309 20.1344C26.064 19.955 26.4341 19.6513 26.6944 19.2616C26.9548 18.8719 27.0938 18.4137 27.0938 17.945C27.0935 17.3166 26.8437 16.7141 26.3993 16.2698C25.955 15.8254 25.3525 15.5756 24.7241 15.5753ZM2.36974 12.5378C3.67851 12.5378 4.73948 11.4769 4.73948 10.1681C4.73948 8.85934 3.67851 7.79837 2.36974 7.79837C1.06096 7.79837 0 8.85934 0 10.1681C0 11.4769 1.06096 12.5378 2.36974 12.5378ZM49.1118 11.4829C49.9416 10.5632 51.1032 10.0977 52.563 10.0977C54.0158 10.0977 55.1761 10.5674 56.0199 11.4829C56.8637 12.3985 57.2856 13.5841 57.2856 15.0073C57.2856 16.9101 56.7062 18.744 55.5614 20.4612H53.2198L53.2761 20.3712C54.5545 18.391 55.2 16.5867 55.2 15.0073C55.2234 14.1865 54.9714 13.3815 54.4841 12.7205C54.013 12.1017 53.39 11.8008 52.5673 11.8008C51.7445 11.8008 51.1271 12.0891 50.6588 12.7093C50.1905 13.3295 49.9556 14.1002 49.9556 15.0073C49.9556 16.5867 50.6054 18.391 51.8894 20.3712L51.9456 20.4612H49.5956C48.4452 18.7454 47.8643 16.9101 47.8643 15.0073C47.8643 13.5841 48.282 12.4027 49.1118 11.4829ZM79.7469 14.8317C79.7469 16.3295 79.1281 17.9257 77.9074 19.5838H77.7035H75.3843H75.1607L75.2606 19.4755C76.8779 17.7555 77.695 16.193 77.695 14.8345C77.695 14.0033 77.4545 13.3114 76.9792 12.777C76.5038 12.2425 76.0355 11.981 75.5728 11.981C74.8696 11.981 74.3549 12.2144 74.0019 12.694C73.6489 13.1736 73.452 13.8964 73.4393 14.8106V16.9862H71.4085V14.805C71.3931 13.8922 71.2018 13.1468 70.846 12.5955C70.4902 12.0442 70.0556 11.8009 69.5043 11.8009C68.8461 11.8009 68.3792 12.0653 68.0768 12.611C67.7646 13.182 67.6043 13.9569 67.6043 14.9203V16.9834H65.5552V14.9203C65.5552 13.9583 65.3428 13.2186 64.9237 12.7179C64.5046 12.2172 64.0152 11.9781 63.4245 11.9781C62.9661 11.9781 62.502 12.251 62.0449 12.7882C61.5878 13.3254 61.3417 14.1538 61.3417 15.2184C61.3417 17.4827 62.2348 19.2561 63.9955 20.4895C65.7563 21.7229 68.8138 22.3712 73.0385 22.3712H74.421V24.3134H73.144C68.503 24.3134 64.987 23.5217 62.7129 21.9592C60.4388 20.3967 59.2504 18.1338 59.2504 15.2719C59.2504 13.7249 59.6723 12.4985 60.5021 11.6153C61.3319 10.7321 62.3177 10.275 63.4189 10.275C64.7254 10.275 65.7662 10.922 66.5242 12.2018C66.9953 10.8052 67.9953 10.0922 69.4987 10.0922C70.8558 10.0922 71.8473 10.8109 72.4521 12.2327C73.2115 10.9276 74.2621 10.2638 75.5784 10.2638C76.6782 10.2638 77.657 10.6857 78.491 11.5112C79.325 12.3368 79.7469 13.4619 79.7469 14.8317ZM89.4607 12.4432C90.2919 10.885 91.4718 10.0974 92.9766 10.0974C93.5482 10.0835 94.1162 10.1918 94.6425 10.4152C95.1688 10.6386 95.6414 10.9718 96.0285 11.3927C96.8315 12.2548 97.2379 13.5303 97.2379 15.1899C97.2379 17.3149 96.2043 19.0897 94.1608 20.4666H91.0668L91.3016 20.3259C93.8781 18.7888 95.1832 17.0589 95.1832 15.1899C95.1832 14.0619 94.954 13.1928 94.5053 12.6401C94.0567 12.0874 93.556 11.8061 92.9738 11.8061C92.2692 11.8061 91.6898 12.1127 91.2074 12.7442C90.7056 13.4184 90.4384 14.2384 90.4466 15.0788L90.4367 17.0308H88.4875V15.1027C88.5056 14.2632 88.2422 13.4418 87.7393 12.7695C87.2471 12.1212 86.6704 11.8061 85.9673 11.8061C85.3794 11.8061 84.8801 12.0733 84.4287 12.6317C83.9772 13.19 83.7494 14.0521 83.7494 15.1899C83.7494 17.1236 85.0545 18.8506 87.6296 20.3245L87.8771 20.4652H84.7831C82.7439 19.0883 81.713 17.3135 81.713 15.1885C81.713 13.5233 82.118 12.2477 82.9168 11.3912C83.3035 10.9712 83.7754 10.6384 84.301 10.4153C84.8265 10.1922 85.3936 10.0838 85.9644 10.0974C87.465 10.0974 88.6394 10.885 89.4607 12.4432ZM106.766 15.0482C107.159 14.4048 107.364 13.6643 107.357 12.9105C107.364 12.4873 107.27 12.0684 107.082 11.6891C106.894 11.3098 106.618 10.9812 106.277 10.7307C105.574 10.1962 104.716 9.9248 103.707 9.9248C102.678 9.9248 101.807 10.1653 101.117 10.6421C100.426 11.1188 100.052 11.7812 100.058 12.5758C100.071 12.9644 100.132 13.3499 100.239 13.7234L102.125 13.4984L102.106 13.4421C102.007 13.1838 101.947 12.9122 101.928 12.6363C101.936 12.4936 101.979 12.355 102.052 12.2325C102.126 12.11 102.228 12.0072 102.35 11.9331C102.632 11.7292 103.094 11.6279 103.703 11.6279C104.312 11.6279 104.752 11.7686 105.066 12.033C105.38 12.2974 105.525 12.5758 105.525 12.8768C105.529 13.4322 105.415 13.9822 105.19 14.4899C104.818 14.4302 104.441 14.4085 104.065 14.4252C102.326 14.5658 101.01 15.0792 100.148 15.9567C99.7245 16.3849 99.3914 16.8936 99.1682 17.4529C98.945 18.0121 98.8362 18.6105 98.8485 19.2125C98.8225 20.5543 99.328 21.852 100.255 22.8227C101.186 23.8071 102.505 24.3092 104.193 24.3092C105.847 24.3092 107.146 23.8085 108.035 22.8212C108.471 22.3423 108.813 21.7849 109.042 21.1786C109.27 20.5476 109.384 19.8808 109.378 19.2097C109.381 17.5291 108.498 16.1297 106.766 15.0482ZM106.437 21.9071C105.834 22.3881 105.072 22.6314 104.167 22.6314C103.319 22.6561 102.489 22.3846 101.82 21.8635C101.196 21.3642 100.881 20.4571 100.881 19.1773C100.86 18.4074 101.109 17.6544 101.584 17.0481C102.044 16.4715 102.883 16.1621 104.075 16.1297C105.267 16.1466 106.114 16.4771 106.589 17.1142C107.056 17.7157 107.315 18.4525 107.327 19.2139C107.329 20.5331 107.029 21.4332 106.437 21.9029V21.9071ZM112.238 11.4829C113.069 10.5632 114.231 10.0977 115.69 10.0977C117.142 10.0977 118.3 10.5674 119.144 11.4829C119.987 12.3985 120.409 13.5841 120.409 15.0073C120.409 16.9087 119.83 18.744 118.685 20.4612H116.343L116.401 20.3712C117.678 18.391 118.324 16.5867 118.324 15.0073C118.347 14.1865 118.095 13.3815 117.608 12.7205C117.137 12.1017 116.514 11.8008 115.691 11.8008C114.868 11.8008 114.251 12.0891 113.785 12.7093C113.32 13.3295 113.082 14.1002 113.082 15.0073C113.082 16.5867 113.732 18.391 115.016 20.3712L115.075 20.4612H112.722C111.572 18.744 110.991 16.9101 110.991 15.0073C110.991 13.5841 111.407 12.4027 112.238 11.4829ZM131.508 16.068C131.508 17.5461 131.086 18.719 130.25 19.5488C129.413 20.3786 128.347 20.8019 127.073 20.8019C125.614 20.8019 124.453 20.3504 123.623 19.456C122.793 18.5615 122.374 17.3675 122.374 15.8908C122.354 14.99 122.615 14.1053 123.121 13.3594L124.91 14.13L124.896 14.1554C124.585 14.6818 124.418 15.2809 124.413 15.8922C124.413 16.8542 124.655 17.6404 125.13 18.2282C125.606 18.8161 126.241 19.0988 127.073 19.0988C127.718 19.0988 128.264 18.84 128.742 18.307C129.22 17.774 129.458 17.023 129.458 16.0694C129.458 14.829 128.815 13.8192 127.489 12.9951C126.083 12.1147 125.369 10.901 125.369 9.38916H127.277V9.3976C127.277 10.33 127.964 11.2765 129.319 12.2103C130.773 13.2201 131.508 14.5112 131.508 16.068ZM45.4412 17.4242C45.4595 17.261 45.4595 17.0951 45.4595 16.9249C45.4567 16.8293 45.4539 16.735 45.4497 16.6492C45.3723 15.3005 44.897 14.1782 44.0532 13.3133C43.9118 13.1708 43.7863 13.0371 43.6703 12.9137C43.6398 12.8812 43.6099 12.8493 43.5806 12.8183L43.5586 12.7945C42.9115 12.0939 42.676 11.839 42.6468 11.4217C42.5919 10.6384 42.7607 10.2657 42.7607 10.2657H40.7749C40.7454 10.4823 40.7271 10.7115 40.7172 10.952C40.7074 11.2417 40.713 11.5469 40.7313 11.8662C40.7313 11.8664 40.7312 11.8671 40.7312 11.8681C40.7278 11.9118 40.6724 12.6413 42.0378 14.0067C42.0701 14.0404 42.1053 14.0713 42.1404 14.1023L42.1405 14.1023C42.5107 14.4203 42.8128 14.8098 43.0286 15.2475C43.2444 15.6852 43.3695 16.162 43.3964 16.6492C43.4039 16.7428 43.4067 16.8367 43.4048 16.9305C43.4071 17.2292 43.3798 17.5274 43.3232 17.8207C43.2597 18.0861 43.1593 18.3412 43.0251 18.5788C42.7732 19.0374 42.3974 19.416 41.9408 19.6715C41.7762 19.7609 41.6039 19.8352 41.426 19.8937C41.2083 19.9634 40.9832 20.0073 40.7552 20.0245C40.675 20.0358 40.5935 20.0358 40.5119 20.0358C40.1401 20.0447 39.7707 19.974 39.4284 19.8285C39.0862 19.683 38.779 19.4659 38.5275 19.192C38.0015 18.6308 37.709 17.8432 37.709 16.8152V16.6408V6.83838H35.7401V16.8082V16.9488C35.741 17.8043 35.9546 18.6462 36.3617 19.3987C36.7601 20.1258 37.3546 20.7266 38.0775 21.1328C38.8242 21.5457 39.6657 21.7565 40.5189 21.7445C41.0308 21.7477 41.5404 21.6771 42.0322 21.535C42.8508 21.3837 43.6058 20.992 44.2008 20.4099C44.9392 19.6743 45.3554 18.673 45.4412 17.4242Z" fill="#4f13a3"/>
</svg>
