<svg width="29" height="23" viewBox="0 0 29 23" fill="none" xmlns="http://www.w3.org/2000/svg">
<path d="M16.0411 5.71484C16.0288 6.28394 15.1854 6.7429 14.1472 6.7429C13.1088 6.7429 12.2658 6.2839 12.2533 5.71484C10.6647 5.8598 9.42041 7.19556 9.42041 8.82169C9.42041 10.5452 10.8171 10.5408 12.5406 10.5408H15.754C17.4773 10.5408 18.8742 10.5452 18.8742 8.82169C18.8742 7.19556 17.6299 5.8598 16.0411 5.71484Z" fill="white"/>
<path d="M11.7873 2.89457C11.7888 2.91694 11.791 2.93953 11.793 2.9619C11.9436 4.66522 12.9401 5.98167 14.1474 5.98167C15.3544 5.98167 16.3514 4.66544 16.5022 2.9619C16.5042 2.93953 16.506 2.91694 16.5079 2.89457C16.5187 2.82067 16.5259 2.74589 16.5303 2.67001C16.5332 2.61804 16.5354 2.56584 16.5354 2.51321C16.5354 2.3836 16.5259 2.25641 16.5079 2.13184C16.3334 0.92481 15.3432 0 14.1478 0C12.9524 0 11.9623 0.925035 11.7877 2.13184C11.7695 2.25641 11.7607 2.3836 11.7607 2.51321C11.7607 2.56562 11.7627 2.61782 11.7656 2.67001C11.7695 2.74589 11.7765 2.82067 11.7873 2.89457H11.7873ZM12.6748 1.5395C12.6748 1.5395 13.3621 1.87305 14.1474 1.89454C14.9331 1.87327 15.62 1.5395 15.62 1.5395C16.118 1.73599 15.8818 3.1362 15.8818 3.1362C16.0064 3.04936 16.1204 3.0044 16.2132 2.98116C16.0761 4.46912 15.2037 5.6167 14.1473 5.6167C13.0909 5.6167 12.2182 4.46912 12.0811 2.98116C12.1738 3.00441 12.2883 3.04936 12.4124 3.1362C12.4124 3.13642 12.1767 1.73599 12.6747 1.5395H12.6748Z" fill="white"/>
<path d="M26.1711 17.9475C26.6919 18.006 27.1494 18.0959 27.1494 18.0959C26.109 17.5244 26.1362 15.4725 26.1362 15.4725C26.318 11.4983 23.6954 11.706 23.6954 11.706L23.6932 11.7123L23.6912 11.706C23.6912 11.706 21.0686 11.4985 21.25 15.4725C21.25 15.4725 21.2767 17.5242 20.2368 18.0959C20.2368 18.0959 20.5168 18.0768 20.8914 18.0698C19.8308 18.5435 19.0918 19.6076 19.0918 20.844C19.0918 22.5212 20.4513 22.2252 22.1289 22.2252H25.2568C26.9345 22.2252 28.2941 22.5212 28.2941 20.844C28.2948 19.4852 27.4016 18.3352 26.1711 17.9474L26.1711 17.9475ZM24.3961 18.7438L23.6936 19.8852L22.9912 18.7438C22.4807 18.628 22.0861 18.3898 21.9274 18.0955C22.339 18.1313 22.6881 18.2067 22.7785 18.3552L22.3914 17.4918C22.7625 17.8622 23.2105 18.0791 23.6938 18.0791C24.1658 18.0791 24.6044 17.8718 24.9706 17.5172L24.7008 18.0791C24.791 17.9299 25.1313 17.8898 25.5302 17.9001C25.4657 18.2824 25.016 18.6034 24.396 18.7437L24.3961 18.7438ZM25.7101 15.0865C25.6708 15.6123 25.5369 16.097 25.334 16.5033C24.9649 17.2431 24.368 17.7235 23.6932 17.7235C22.6651 17.7235 21.8153 16.6064 21.6824 15.1582C21.6824 15.1582 22.4943 15.0235 22.9789 14.8325C22.9789 14.8325 23.857 14.5388 24.9301 13.7667C24.9353 13.7625 24.9404 13.7593 24.9459 13.7551C24.9459 13.7551 24.9654 13.7827 24.9924 13.8296C25.0853 13.9893 25.2851 14.4649 24.9077 14.6825L25.5945 14.77H25.607L25.7325 14.793C25.7318 14.8926 25.7244 14.9906 25.7101 15.0864V15.0865Z" fill="white"/>
<path d="M6.6211 17.4189C6.60816 17.988 5.7654 18.4472 4.72701 18.4472C3.68863 18.4472 2.84562 17.988 2.83316 17.4189C1.24431 17.5641 0 18.8997 0 20.526C0 22.2493 1.39673 22.2451 3.11998 22.2451H6.3336C8.05685 22.2451 9.45381 22.2495 9.45381 20.526C9.45403 18.8997 8.20972 17.5641 6.6211 17.4189Z" fill="white"/>
<path d="M2.36681 14.5996C2.36878 14.6219 2.37031 14.6445 2.37251 14.6669C2.52317 16.3706 3.51969 17.6862 4.72734 17.6862C5.93482 17.6862 6.93155 16.3702 7.08178 14.6669C7.08397 14.6445 7.08595 14.6219 7.0877 14.5996C7.09845 14.5257 7.10569 14.4504 7.10963 14.3748C7.1127 14.3228 7.11468 14.2706 7.11468 14.218C7.11468 14.0884 7.10525 13.9614 7.0877 13.8368C6.91314 12.6296 5.923 11.7046 4.72737 11.7046C3.53173 11.7046 2.54135 12.6296 2.36726 13.8368C2.34905 13.9614 2.33984 14.0884 2.33984 14.218C2.33984 14.2708 2.34204 14.323 2.34489 14.3748C2.34862 14.4504 2.35585 14.5252 2.36682 14.5996H2.36681ZM3.25434 13.244C3.25434 13.244 3.94162 13.5778 4.72692 13.5991C5.51267 13.578 6.19949 13.244 6.19949 13.244C6.69775 13.4403 6.46178 14.8406 6.46178 14.8406C6.58635 14.7542 6.70038 14.7088 6.79314 14.6855C6.6563 16.1735 5.78373 17.3213 4.72732 17.3213C3.67075 17.3213 2.79815 16.1737 2.66105 14.6855C2.75381 14.7088 2.86829 14.7542 2.99241 14.8408C2.99241 14.841 2.75623 13.4403 3.25426 13.2441L3.25434 13.244Z" fill="white"/>
<path d="M14.9089 11.7119H13.3863V15.5131L10.0962 17.4124L10.8574 18.7311L14.1478 16.8315L17.4381 18.7311L18.1994 17.4124L14.909 15.5131L14.9089 11.7119Z" fill="white"/>
</svg>
