<?xml version="1.0" standalone="no"?>
<!DOCTYPE svg PUBLIC "-//W3C//DTD SVG 20010904//EN"
 "http://www.w3.org/TR/2001/REC-SVG-20010904/DTD/svg10.dtd">
<svg version="1.0" xmlns="http://www.w3.org/2000/svg"
 width="6356.000000pt" height="1260.000000pt" viewBox="0 0 6356.000000 1260.000000"
 preserveAspectRatio="xMidYMid meet">

<g transform="translate(0.000000,1260.000000) scale(0.100000,-0.100000)"
fill="#000000" stroke="none">
<path d="M26925 10050 c-327 -38 -584 -296 -625 -625 -11 -90 7 -227 42 -318
103 -268 340 -442 618 -454 168 -8 245 18 488 165 81 49 179 105 217 124 417
208 888 242 1335 97 120 -39 301 -127 450 -220 148 -91 209 -122 299 -149 63
-20 89 -22 185 -17 91 4 126 10 195 36 184 68 330 200 408 369 44 94 63 184
63 296 1 467 -468 813 -898 663 -38 -13 -141 -67 -228 -120 -423 -255 -708
-335 -1124 -316 -161 8 -276 28 -428 76 -125 39 -365 154 -484 232 -202 133
-353 180 -513 161z"/>
<path d="M18041 8404 c-221 -59 -355 -284 -296 -499 33 -121 105 -208 225
-271 51 -27 63 -29 170 -29 110 0 118 1 175 32 73 38 155 120 190 190 115 231
-16 512 -270 578 -72 18 -123 18 -194 -1z"/>
<path d="M7320 6157 c0 -1615 3 -2096 12 -2105 9 -9 94 -12 320 -12 l308 0 -2
2103 -3 2102 -317 3 -318 2 0 -2093z"/>
<path d="M8830 6145 l0 -2105 308 0 c226 0 311 3 320 12 9 9 12 490 12 2105
l0 2093 -320 0 -320 0 0 -2105z"/>
<path d="M1600 8030 c-331 -46 -594 -160 -785 -341 -100 -95 -155 -170 -216
-293 -160 -325 -142 -762 44 -1036 72 -106 221 -240 347 -312 118 -68 408
-168 775 -268 427 -116 559 -174 692 -307 98 -99 140 -224 130 -388 -14 -212
-119 -367 -312 -460 -126 -61 -215 -78 -405 -77 -254 0 -387 47 -520 181 -106
107 -145 185 -185 374 l-5 27 -342 0 -341 0 6 -87 c33 -461 381 -835 908 -977
230 -62 552 -77 783 -37 281 49 534 171 715 345 127 123 205 238 270 402 57
142 74 233 74 394 0 225 -44 394 -142 542 -56 85 -211 240 -291 290 -159 101
-380 185 -845 318 -450 129 -567 182 -692 311 -100 104 -135 227 -114 400 26
227 172 382 416 445 103 27 351 24 456 -4 229 -62 410 -233 449 -427 7 -33 17
-63 24 -67 6 -4 160 -8 342 -8 281 0 333 2 344 15 17 20 -19 197 -64 317 -138
366 -486 629 -946 715 -99 18 -469 27 -570 13z"/>
<path d="M25835 7740 c-158 -17 -304 -88 -420 -205 -92 -91 -144 -175 -182
-290 -36 -112 -39 -277 -5 -379 76 -227 213 -380 416 -464 446 -183 949 161
949 648 0 116 -20 193 -80 311 -127 250 -408 407 -678 379z"/>
<path d="M28555 7739 c-145 -21 -268 -83 -383 -194 -144 -137 -209 -279 -219
-475 -5 -87 -2 -120 16 -189 35 -142 82 -222 191 -332 79 -80 109 -102 180
-137 114 -55 187 -72 306 -72 160 0 234 28 483 179 352 215 613 293 981 292
366 0 628 -82 1005 -311 215 -131 296 -160 454 -160 188 0 333 62 478 205 79
78 98 103 137 185 60 124 80 224 73 350 -11 185 -81 334 -220 467 -140 134
-295 197 -482 196 -152 -1 -222 -27 -450 -168 -230 -143 -421 -223 -662 -278
-87 -19 -125 -22 -343 -22 -233 1 -251 2 -365 29 -217 51 -388 125 -651 283
-172 103 -257 140 -358 153 -81 11 -90 11 -171 -1z"/>
<path d="M34640 5926 c0 -1304 2 -1552 15 -1648 82 -621 492 -1071 1095 -1203
101 -22 389 -31 504 -16 193 26 434 95 571 164 358 179 581 490 661 922 29
155 27 491 -4 642 -61 304 -186 540 -405 771 -280 293 -362 396 -387 478 -13
42 -9 303 6 372 l6 32 -280 0 c-214 0 -283 -3 -289 -12 -4 -7 -9 -117 -11
-244 -5 -265 0 -290 74 -434 63 -123 157 -242 334 -424 163 -168 214 -234 272
-351 87 -174 112 -303 105 -550 -5 -212 -17 -266 -88 -410 -107 -218 -287
-368 -524 -437 -69 -20 -102 -23 -245 -23 -145 0 -174 3 -240 23 -281 88 -472
296 -558 611 l-27 96 -3 1588 -2 1587 -290 0 -290 0 0 -1534z"/>
<path d="M11480 7210 c-257 -35 -522 -138 -724 -281 -166 -119 -366 -351 -457
-532 -117 -231 -168 -440 -176 -723 -12 -407 71 -718 271 -1019 89 -133 268
-312 397 -398 475 -314 1112 -350 1644 -93 588 285 924 901 866 1589 -35 417
-181 748 -450 1018 -218 218 -480 356 -797 420 -86 17 -151 22 -309 25 -110 1
-229 -1 -265 -6z m460 -570 c162 -39 318 -128 431 -246 83 -87 120 -142 175
-258 130 -276 139 -710 19 -1004 -47 -117 -107 -203 -210 -308 -133 -134 -256
-204 -441 -251 -107 -27 -372 -24 -479 6 -164 44 -279 115 -400 243 -173 183
-250 394 -262 718 -11 300 42 537 163 727 48 76 164 195 238 245 107 74 261
132 393 148 98 12 276 3 373 -20z"/>
<path d="M15035 7213 c-79 -10 -236 -47 -308 -74 -582 -215 -949 -748 -983
-1431 -19 -386 82 -767 287 -1078 80 -122 271 -314 389 -391 256 -169 500
-242 800 -242 385 0 703 132 973 404 60 60 111 109 113 109 8 0 3 -578 -6
-672 -35 -358 -205 -603 -500 -721 -190 -75 -487 -84 -709 -21 -260 74 -469
248 -546 457 l-18 47 -315 0 -315 0 7 -49 c40 -299 228 -591 495 -770 288
-191 617 -281 1028 -281 315 1 542 52 784 177 368 190 608 514 712 965 21 93
21 94 24 1811 l3 1717 -320 0 -320 0 0 -220 c0 -121 -3 -220 -7 -220 -3 0 -54
47 -113 104 -211 206 -455 328 -740 371 -86 13 -336 18 -415 8z m550 -573
c370 -95 635 -395 706 -800 7 -41 13 -145 13 -230 0 -85 -6 -189 -13 -230 -84
-478 -432 -805 -881 -827 -284 -14 -499 67 -696 262 -153 152 -234 298 -286
517 -31 135 -32 440 -1 575 45 192 125 343 253 477 146 153 328 246 545 276
87 13 273 2 360 -20z"/>
<path d="M20395 7213 c-79 -10 -236 -47 -308 -74 -584 -216 -951 -752 -983
-1437 -30 -644 265 -1230 769 -1524 297 -173 684 -228 1032 -146 246 57 465
181 650 368 55 55 103 100 107 100 5 0 8 -103 8 -230 l0 -230 320 0 320 0 0
1565 0 1565 -320 0 -320 0 0 -220 c0 -121 -3 -220 -6 -220 -4 0 -55 46 -113
103 -213 204 -454 328 -727 371 -93 15 -343 20 -429 9z m440 -553 c413 -47
737 -373 816 -820 16 -94 17 -372 0 -460 -91 -485 -432 -805 -881 -827 -278
-13 -494 66 -689 254 -151 144 -244 311 -293 525 -31 136 -32 442 0 576 48
207 141 371 291 514 74 71 108 94 202 142 187 93 343 120 554 96z"/>
<path d="M3660 7155 c0 -8 271 -691 602 -1517 331 -827 603 -1517 606 -1534 3
-24 -66 -200 -307 -777 -171 -409 -311 -747 -311 -751 0 -3 146 -6 324 -6
l324 0 15 33 c36 74 1890 4524 1895 4545 l4 22 -320 0 c-244 0 -322 -3 -329
-12 -5 -7 -211 -539 -457 -1183 -247 -643 -452 -1174 -457 -1179 -5 -6 -16 9
-28 35 -10 24 -207 555 -437 1179 -229 624 -422 1141 -427 1148 -7 9 -90 12
-353 12 -299 0 -344 -2 -344 -15z"/>
<path d="M17820 5605 l0 -1565 309 0 c248 0 311 3 320 14 8 10 10 426 9 1562
l-3 1549 -317 3 -318 2 0 -1565z"/>
<path d="M61242 6688 c-7 -7 -12 -31 -12 -55 0 -24 -5 -52 -12 -63 -25 -40 27
-243 102 -393 100 -199 261 -370 505 -534 273 -183 404 -321 500 -526 62 -132
79 -220 79 -402 -1 -311 -72 -517 -237 -685 -89 -90 -161 -137 -265 -173 -75
-26 -95 -28 -215 -28 -220 1 -365 53 -501 181 -120 114 -195 248 -242 432 -32
126 -44 382 -24 506 13 83 58 218 97 296 13 27 21 52 16 56 -13 13 -480 210
-497 210 -19 0 -89 -119 -132 -225 -66 -163 -94 -322 -94 -523 1 -583 264
-1063 705 -1284 182 -92 373 -137 611 -145 262 -9 469 29 659 122 431 211 670
583 716 1115 44 520 -158 940 -608 1266 -181 131 -244 183 -354 295 -162 162
-258 327 -274 470 -3 30 -8 64 -11 77 l-4 22 -248 0 c-180 0 -251 -3 -260 -12z"/>
<path d="M54543 6529 c-428 -66 -756 -308 -828 -610 -20 -88 -19 -229 4 -348
21 -106 34 -141 54 -141 28 0 511 61 515 65 2 2 -6 41 -18 86 -44 163 -26 266
60 343 92 83 219 117 435 118 157 1 240 -15 337 -63 71 -36 157 -120 189 -185
21 -43 24 -62 23 -159 -1 -128 -23 -255 -63 -363 l-28 -77 -59 5 c-143 12
-389 3 -514 -19 -419 -73 -710 -210 -932 -439 -188 -194 -297 -405 -360 -697
-8 -37 -13 -133 -13 -255 0 -167 4 -212 24 -310 62 -302 200 -560 411 -770
159 -159 333 -264 553 -336 192 -62 309 -77 577 -78 258 0 348 11 535 66 130
38 320 131 420 206 264 196 470 523 544 863 93 431 17 819 -224 1140 -82 110
-257 277 -374 359 -51 36 -103 72 -114 81 l-21 17 46 93 c109 219 152 468 117
678 -46 287 -261 530 -580 657 -147 58 -249 76 -459 79 -107 2 -223 0 -257 -6z
m523 -1828 c269 -31 463 -132 585 -304 69 -96 143 -252 169 -357 55 -215 29
-593 -55 -799 -92 -225 -290 -373 -586 -438 -116 -25 -418 -25 -534 0 -182 39
-343 120 -461 230 -150 140 -219 316 -244 619 -30 358 54 643 244 834 78 78
178 134 312 174 145 43 393 61 570 41z"/>
<path d="M39381 6475 c-319 -49 -564 -172 -764 -385 -279 -297 -411 -718 -377
-1207 18 -274 68 -515 156 -762 55 -153 211 -473 293 -598 l60 -93 336 0 c184
0 335 2 335 4 0 3 -35 63 -79 133 -259 424 -426 846 -476 1207 -22 158 -20
401 4 523 57 290 212 523 413 623 105 51 193 70 338 70 143 0 231 -18 340 -71
70 -33 99 -55 170 -127 163 -166 248 -367 269 -635 36 -451 -124 -985 -466
-1555 -51 -85 -93 -159 -93 -164 0 -4 150 -7 333 -6 l332 3 43 65 c422 639
582 1515 381 2087 -73 207 -165 358 -308 506 -115 119 -199 182 -325 247 -115
58 -217 93 -352 121 -133 27 -429 34 -563 14z"/>
<path d="M44460 6478 c-97 -14 -234 -63 -323 -116 -142 -84 -277 -250 -348
-424 -24 -62 -41 -72 -60 -35 -6 12 -40 61 -76 109 -307 415 -811 540 -1280
318 -144 -68 -231 -132 -360 -262 -186 -189 -285 -369 -351 -633 -42 -167 -47
-222 -46 -500 0 -296 13 -410 73 -641 118 -451 378 -855 746 -1157 501 -411
1192 -668 2105 -781 374 -47 560 -58 1068 -63 l482 -5 -2 283 -3 284 -280 1
c-923 5 -1454 57 -1971 194 -502 133 -827 310 -1116 608 -238 246 -379 511
-452 852 -53 248 -60 601 -16 805 45 208 109 327 245 460 114 112 201 156 323
162 149 8 264 -30 380 -126 130 -108 213 -259 254 -463 6 -29 13 -240 17 -468
l6 -415 298 -3 297 -2 0 342 c0 348 8 497 36 646 32 174 105 332 193 420 93
94 197 127 368 120 89 -4 110 -9 166 -36 92 -46 185 -143 242 -254 58 -112 71
-147 102 -288 25 -111 26 -131 30 -532 l5 -418 294 0 294 0 0 333 c0 182 5
383 11 446 22 238 91 423 201 537 115 120 213 158 408 159 l126 0 79 -39 c67
-32 99 -57 191 -150 97 -98 116 -122 157 -206 77 -156 90 -222 90 -445 0 -173
-2 -199 -26 -287 -85 -318 -273 -635 -586 -987 -55 -63 -101 -118 -101 -123 0
-4 173 -8 384 -8 344 0 386 2 401 16 9 10 47 62 84 118 246 368 386 703 437
1048 32 218 7 511 -61 713 -197 589 -827 961 -1394 825 -225 -54 -446 -211
-593 -422 -105 -150 -90 -144 -133 -58 -64 128 -140 232 -232 320 -131 126
-280 201 -453 229 -77 13 -239 12 -330 -1z"/>
<path d="M49316 6475 c-372 -61 -687 -282 -863 -606 -174 -319 -237 -828 -154
-1235 90 -442 366 -841 795 -1148 l78 -56 442 0 441 1 -54 32 c-279 167 -467
305 -635 467 -278 269 -419 506 -483 810 -25 116 -24 443 0 577 40 216 105
358 221 481 86 91 167 146 259 174 91 27 269 22 364 -12 201 -71 398 -296 482
-550 50 -154 53 -186 60 -580 l6 -375 281 -3 282 -2 5 362 c4 315 8 375 25
456 50 227 134 391 273 531 128 129 239 180 409 188 198 10 293 -28 440 -176
82 -82 103 -110 143 -191 83 -171 117 -342 117 -608 0 -185 -18 -302 -70 -445
-124 -340 -444 -695 -892 -990 -79 -52 -157 -102 -175 -112 -18 -10 -30 -22
-27 -27 3 -4 195 -8 428 -8 l422 0 45 28 c93 60 249 194 369 318 245 254 400
541 470 869 27 129 38 432 21 596 -42 402 -167 687 -397 909 -144 139 -277
220 -454 278 -240 79 -533 81 -745 5 -273 -98 -459 -267 -670 -608 -21 -34 -8
-48 -124 130 -61 94 -104 144 -193 230 -156 150 -283 223 -486 277 -102 27
-331 33 -456 13z"/>
<path d="M58120 6480 c-330 -46 -569 -158 -775 -365 -188 -188 -312 -428 -377
-725 -20 -94 -22 -132 -22 -370 0 -230 3 -282 22 -395 68 -393 193 -722 409
-1080 30 -49 62 -96 71 -102 12 -10 97 -13 344 -13 180 0 328 2 328 5 0 3 -38
70 -86 148 -47 78 -121 212 -164 298 -210 414 -303 735 -317 1089 -6 178 5
297 43 427 83 290 251 484 489 564 63 22 87 24 245 24 164 -1 180 -3 249 -28
104 -38 155 -70 239 -151 246 -237 337 -596 267 -1059 -52 -346 -207 -740
-454 -1156 -61 -102 -78 -138 -69 -148 8 -10 77 -13 322 -13 171 0 316 4 323
8 21 13 144 225 218 377 180 368 275 736 291 1131 33 793 -398 1393 -1091
1519 -105 19 -408 28 -505 15z"/>
<path d="M32357 5404 c-94 -22 -252 -109 -316 -173 -164 -164 -240 -436 -180
-651 55 -200 172 -350 336 -434 224 -114 415 -115 643 -4 151 74 266 212 331
395 15 41 22 94 26 178 6 146 -7 208 -74 345 -64 131 -151 217 -283 283 -52
25 -122 53 -155 62 -74 19 -248 19 -328 -1z"/>
<path d="M28514 3115 c-448 -99 -692 -588 -493 -990 72 -146 174 -249 319
-324 112 -57 187 -75 310 -74 147 0 217 25 428 152 281 169 466 247 694 293
98 20 142 23 338 22 195 0 239 -3 330 -23 236 -50 418 -127 690 -291 222 -134
283 -155 440 -154 245 1 481 144 601 365 15 27 40 87 55 132 25 71 28 98 28
197 1 133 -15 202 -69 312 -73 146 -178 252 -321 322 -113 55 -182 71 -304 70
-162 -1 -214 -20 -462 -170 -247 -151 -441 -230 -668 -276 -98 -19 -147 -23
-325 -23 -182 0 -225 3 -325 24 -233 48 -448 136 -669 275 -262 164 -406 203
-597 161z"/>
</g>
</svg>
