<svg width="30" height="32" viewBox="0 0 30 32" fill="none" xmlns="http://www.w3.org/2000/svg">
<path d="M25.3165 4.04582L22.0916 1.31689C21.8485 1.11209 21.5411 0.99978 21.2231 1H9.07074C8.75275 1.00022 8.44508 1.11297 8.20222 1.31821L4.97758 4.04584C4.82519 4.17467 4.7034 4.33609 4.62126 4.51799L4.61752 4.52746V4.52724C4.5411 4.69879 4.50146 4.88443 4.50146 5.07206V19.9671C4.50146 20.2811 4.62611 20.5822 4.84809 20.8042C5.07007 21.0264 5.37132 21.151 5.68538 21.151H24.6107H24.6105C24.9245 21.151 25.2256 21.0264 25.4478 20.8042C25.6698 20.5822 25.7944 20.2812 25.7944 19.9671V5.07206C25.7944 4.67633 25.6198 4.30062 25.317 4.04585L25.3165 4.04582ZM21.6137 1.88195L24.466 4.29534H18.0533C18.0486 4.27706 18.0447 4.25548 18.0394 4.23831L17.4159 1.73996H21.223C21.366 1.73974 21.5045 1.78994 21.6137 1.88199L21.6137 1.88195ZM13.0548 11.2629C13.02 11.2772 12.9801 11.2737 12.9484 11.253C12.914 11.2323 12.8931 11.1946 12.8938 11.1543V5.07193C12.8898 4.85149 12.9156 4.63149 12.9706 4.41786L13.6423 1.73978H16.6538L17.3288 4.4359H17.329C17.381 4.644 17.4054 4.85828 17.4012 5.073V11.1514C17.4017 11.1917 17.3807 11.2292 17.3464 11.2501C17.3195 11.2697 17.285 11.2756 17.253 11.2666L15.6815 10.3906C15.5318 10.2728 15.3468 10.2085 15.1561 10.208C14.9656 10.2078 14.7804 10.2715 14.6302 10.3888L13.0548 11.2629ZM8.67989 1.88195C8.78912 1.7899 8.92763 1.73969 9.07055 1.73991H12.8777L12.2575 4.22157C12.2507 4.24426 12.2454 4.2709 12.2393 4.29557H5.82651L8.67989 1.88195ZM25.0525 19.9667C25.0525 20.2118 24.8539 20.4107 24.6086 20.4107H5.68436C5.43925 20.4107 5.2404 20.2118 5.2404 19.9667V5.07169C5.2404 5.05914 5.2437 5.04703 5.24436 5.03492H12.1549V5.07169V11.1535C12.1547 11.4482 12.3055 11.7221 12.5548 11.8791C12.8039 12.0364 13.1162 12.0544 13.3818 11.9271C13.3886 11.9238 13.3954 11.9203 13.4018 11.9168L15.0173 11.0209C15.0389 11.0088 15.0594 10.9945 15.0785 10.9784C15.1221 10.9403 15.1873 10.9403 15.2311 10.9784C15.2501 10.9947 15.2708 11.0092 15.2926 11.0216L16.9122 11.9236C17.1778 12.0513 17.4905 12.0337 17.7401 11.8769C17.9896 11.7199 18.1411 11.4459 18.1411 11.1511V5.0715V5.03472H25.0511C25.0511 5.04705 25.055 5.05939 25.055 5.0715L25.0525 19.9667Z" fill="white" stroke="white" stroke-width="0.5"/>
<path d="M25.0126 31.1087H5.28107C4.14605 31.1071 3.05772 30.6557 2.25526 29.853C1.45281 29.0504 1.00135 27.9622 1 26.8272V26.781C1.00132 25.646 1.45277 24.5576 2.25526 23.7552C3.05772 22.9525 4.14605 22.5008 5.28107 22.4995H25.0126C26.1478 22.5008 27.2361 22.9523 28.0386 23.755C28.8413 24.5577 29.2928 25.6458 29.2941 26.781V26.8273C29.2928 27.9623 28.8414 29.0506 28.0386 29.8533C27.2362 30.656 26.1478 31.1074 25.0126 31.1088V31.1087ZM5.28107 23.2409C4.34252 23.242 3.44248 23.6152 2.77871 24.279C2.115 24.9427 1.74129 25.8425 1.73993 26.7811V26.8273C1.74103 27.7661 2.1143 28.6662 2.77826 29.3302C3.44197 29.9941 4.34224 30.3676 5.28107 30.3689H25.0126C25.9516 30.3678 26.8519 29.9943 27.5158 29.3304C28.1795 28.6664 28.553 27.7662 28.5541 26.8274V26.7812C28.553 25.8422 28.1795 24.9421 27.5158 24.2782C26.8519 23.6142 25.9516 23.2408 25.0126 23.2396L5.28107 23.2409Z" fill="white" stroke="white" stroke-width="0.5"/>
<path d="M24.8014 29.0651H23.5681C23.3638 29.0651 23.1982 28.8995 23.1982 28.6951C23.1982 28.4908 23.3638 28.3252 23.5681 28.3252H24.8069C25.1403 28.3252 25.4645 28.2144 25.7283 28.0105C25.8904 27.8858 26.1227 27.9162 26.2474 28.0783C26.3718 28.2402 26.3414 28.4725 26.1795 28.5971C25.7871 28.9006 25.305 29.0653 24.8091 29.0658H24.8014L24.8014 29.0651ZM22.3349 29.0651H21.1017C20.8973 29.0651 20.7317 28.8995 20.7317 28.6951C20.7317 28.4908 20.8973 28.3252 21.1017 28.3252H22.3349C22.5393 28.3252 22.7049 28.4908 22.7049 28.6951C22.7049 28.8995 22.5393 29.0651 22.3349 29.0651ZM19.8685 29.0651H18.6353C18.4309 29.0651 18.2653 28.8995 18.2653 28.6951C18.2653 28.4908 18.4309 28.3252 18.6353 28.3252H19.8685C20.0728 28.3252 20.2385 28.4908 20.2385 28.6951C20.2385 28.8995 20.0728 29.0651 19.8685 29.0651ZM17.402 29.0651H16.1688C15.9645 29.0651 15.7989 28.8995 15.7989 28.6951C15.7989 28.4908 15.9645 28.3252 16.1688 28.3252H17.402C17.6064 28.3252 17.772 28.4908 17.772 28.6951C17.772 28.8995 17.6064 29.0651 17.402 29.0651ZM14.9356 29.0651H13.7024C13.498 29.0651 13.3324 28.8995 13.3324 28.6951C13.3324 28.4908 13.498 28.3252 13.7024 28.3252H14.9356C15.14 28.3252 15.3056 28.4908 15.3056 28.6951C15.3056 28.8995 15.14 29.0651 14.9356 29.0651ZM12.4692 29.0651H11.2359C11.0316 29.0651 10.866 28.8995 10.866 28.6951C10.866 28.4908 11.0316 28.3252 11.2359 28.3252H12.4692C12.6735 28.3252 12.8391 28.4908 12.8391 28.6951C12.8391 28.8995 12.6735 29.0651 12.4692 29.0651ZM10.0027 29.0651H8.7695C8.56514 29.0651 8.39953 28.8995 8.39953 28.6951C8.39953 28.4908 8.56514 28.3252 8.7695 28.3252H10.0027C10.2071 28.3252 10.3727 28.4908 10.3727 28.6951C10.3727 28.8995 10.2071 29.0651 10.0027 29.0651ZM7.53628 29.0651H6.30305C6.09869 29.0651 5.93309 28.8995 5.93309 28.6951C5.93309 28.4908 6.09869 28.3252 6.30305 28.3252H7.53628C7.74064 28.3252 7.90624 28.4908 7.90624 28.6951C7.90624 28.8995 7.74064 29.0651 7.53628 29.0651ZM5.07316 29.0248C5.04762 29.0248 5.02207 29.0222 4.99718 29.0169C4.51226 28.9143 4.07425 28.6557 3.75009 28.2807C3.61664 28.1261 3.6336 27.8924 3.78841 27.7587C3.943 27.6253 4.17665 27.6423 4.31033 27.7971C4.52812 28.0494 4.82255 28.2236 5.14892 28.2928C5.33412 28.3318 5.4603 28.5044 5.44093 28.6927C5.42133 28.8812 5.26277 29.0246 5.07338 29.0248L5.07316 29.0248ZM26.6285 27.6683C26.5956 27.6683 26.563 27.6639 26.5316 27.6555C26.4369 27.6297 26.356 27.5676 26.3074 27.4824C26.2585 27.3974 26.2455 27.2963 26.271 27.2016C26.3574 26.8797 26.3364 26.5383 26.2111 26.2294C26.1343 26.0404 26.225 25.8248 26.414 25.7478C26.6027 25.6705 26.8185 25.7608 26.896 25.9495C27.0828 26.4086 27.114 26.9162 26.9854 27.395C26.9414 27.5558 26.7952 27.6674 26.6285 27.6674V27.6683ZM3.57413 27.2877C3.37791 27.288 3.21539 27.1349 3.20416 26.9389C3.20152 26.8942 3.2002 26.8497 3.2002 26.8042V26.8044C3.19976 26.3547 3.33365 25.9153 3.58492 25.5425C3.69899 25.3729 3.9289 25.328 4.09847 25.4423C4.26803 25.5564 4.31296 25.7863 4.19866 25.9559C4.02976 26.2065 3.93968 26.502 3.94013 26.8044C3.94013 26.8352 3.94013 26.866 3.94277 26.8966H3.94299C3.95466 27.1006 3.79875 27.2752 3.59483 27.2871L3.57413 27.2877ZM25.7603 25.5436H25.7605C25.6944 25.5436 25.6297 25.526 25.5726 25.4923C25.339 25.3546 25.0727 25.2822 24.8014 25.2824H24.5746C24.3702 25.2824 24.2046 25.1168 24.2046 24.9124C24.2046 24.7083 24.3702 24.5425 24.5746 24.5425H24.8014C25.2049 24.5425 25.6011 24.6504 25.9486 24.855C26.0924 24.9398 26.1615 25.1102 26.1175 25.2712C26.0736 25.4322 25.9272 25.5438 25.7605 25.5436L25.7603 25.5436ZM4.85386 25.3824H4.85408C4.67306 25.3822 4.51891 25.2511 4.48939 25.0728C4.45988 24.8942 4.56383 24.7204 4.73516 24.6623C4.96947 24.5828 5.21545 24.5423 5.46275 24.5425H6.07628C6.28065 24.5425 6.44625 24.7083 6.44625 24.9125C6.44625 25.1168 6.28065 25.2824 6.07628 25.2824H5.46275C5.29626 25.2824 5.13066 25.3095 4.97298 25.3628C4.93466 25.3756 4.89436 25.3817 4.85406 25.3813L4.85386 25.3824ZM23.3412 25.2824H22.108H22.1082C21.9038 25.2824 21.7382 25.1168 21.7382 24.9125C21.7382 24.7083 21.9038 24.5425 22.1082 24.5425H23.3414C23.5458 24.5425 23.7114 24.7083 23.7114 24.9125C23.7114 25.1168 23.5458 25.2824 23.3414 25.2824H23.3412ZM20.8747 25.2824H19.6415H19.6417C19.4374 25.2824 19.2718 25.1168 19.2718 24.9125C19.2718 24.7083 19.4374 24.5425 19.6417 24.5425H20.875C21.0793 24.5425 21.2449 24.7083 21.2449 24.9125C21.2449 25.1168 21.0793 25.2824 20.875 25.2824H20.8747ZM18.4083 25.2824H17.1751H17.1753C16.9709 25.2824 16.8053 25.1168 16.8053 24.9125C16.8053 24.7083 16.9709 24.5425 17.1753 24.5425H18.4085C18.6129 24.5425 18.7785 24.7083 18.7785 24.9125C18.7785 25.1168 18.6129 25.2824 18.4085 25.2824H18.4083ZM15.9419 25.2824H14.7086H14.7089C14.5045 25.2824 14.3389 25.1168 14.3389 24.9125C14.3389 24.7083 14.5045 24.5425 14.7089 24.5425H15.9421C16.1464 24.5425 16.312 24.7083 16.312 24.9125C16.312 25.1168 16.1464 25.2824 15.9421 25.2824H15.9419ZM13.4754 25.2824H12.2422H12.2424C12.038 25.2824 11.8724 25.1168 11.8724 24.9125C11.8724 24.7083 12.038 24.5425 12.2424 24.5425H13.4756C13.68 24.5425 13.8456 24.7083 13.8456 24.9125C13.8456 25.1168 13.68 25.2824 13.4756 25.2824H13.4754ZM11.009 25.2824H9.77575H9.77597C9.57161 25.2824 9.406 25.1168 9.406 24.9125C9.406 24.7083 9.57161 24.5425 9.77597 24.5425H11.0092C11.2136 24.5425 11.3792 24.7083 11.3792 24.9125C11.3792 25.1168 11.2136 25.2824 11.0092 25.2824H11.009ZM8.54253 25.2824H7.30931H7.30953C7.10517 25.2824 6.93956 25.1168 6.93956 24.9125C6.93956 24.7083 7.10517 24.5425 7.30953 24.5425H8.54275C8.74711 24.5425 8.91271 24.7083 8.91271 24.9125C8.91271 25.1168 8.74711 25.2824 8.54275 25.2824H8.54253Z" fill="white" stroke="white" stroke-width="0.5"/>
<path d="M5.55636 28.0077C5.23726 28.0077 4.93137 27.8811 4.70564 27.6554C4.48014 27.4299 4.35352 27.1238 4.35352 26.8049C4.35352 26.4858 4.48014 26.1799 4.70564 25.9542C4.93137 25.7287 5.23725 25.6021 5.55636 25.6021C5.87523 25.6021 6.18134 25.7287 6.40684 25.9542C6.63256 26.1799 6.75919 26.4858 6.75919 26.8049C6.75897 27.1238 6.63212 27.4294 6.40662 27.6552C6.18112 27.8807 5.87523 28.0075 5.55636 28.0077L5.55636 28.0077ZM5.55636 26.342C5.36917 26.342 5.20026 26.4547 5.12869 26.6276C5.05691 26.8007 5.09654 26.9998 5.22889 27.1321C5.36146 27.2647 5.56054 27.3041 5.73341 27.2325C5.9065 27.161 6.01925 26.9921 6.01925 26.8049C6.01947 26.682 5.97058 26.564 5.88382 26.477C5.79705 26.39 5.67924 26.3411 5.55636 26.3409V26.342Z" fill="white" stroke="white" stroke-width="0.5"/>
<path d="M24.698 28.0077C24.3789 28.0077 24.073 27.8811 23.8472 27.6554C23.6217 27.4299 23.4951 27.1238 23.4951 26.8049C23.4951 26.4858 23.6217 26.1799 23.8472 25.9542C24.073 25.7287 24.3789 25.6021 24.698 25.6021C25.0171 25.6021 25.3229 25.7287 25.5484 25.9542C25.7742 26.1799 25.9008 26.4858 25.9008 26.8049C25.9006 27.1238 25.7737 27.4294 25.5482 27.6552C25.3227 27.8807 25.0168 28.0075 24.698 28.0077L24.698 28.0077ZM24.698 26.342C24.5108 26.342 24.3419 26.4547 24.2703 26.6276C24.1985 26.8007 24.2381 26.9998 24.3705 27.1321C24.5031 27.2647 24.7021 27.3041 24.875 27.2325C25.0481 27.161 25.1609 26.9921 25.1609 26.8049C25.1611 26.682 25.1124 26.564 25.0254 26.477C24.9387 26.39 24.8208 26.3411 24.698 26.3409V26.342Z" fill="white" stroke="white" stroke-width="0.5"/>
</svg>
