<svg width="70" height="14" viewBox="0 0 70 14" fill="none" xmlns="http://www.w3.org/2000/svg">
                    <g clip-path="url(#clip0_209_1801)">
                    <path d="M6.01589 0.501709C6.6118 0.501709 7.16232 0.547112 7.66742 0.683321C8.17253 0.774127 8.58683 0.961414 8.95573 1.18843C9.32463 1.41544 9.59705 1.73894 9.78434 2.15324C9.96595 2.56754 10.0624 3.07265 10.0624 3.62316C10.0624 4.26448 9.92622 4.81499 9.60272 5.22929C9.32463 5.64359 8.8706 6.01249 8.31441 6.28491C9.09762 6.51193 9.69353 6.92623 10.0568 7.47674C10.42 8.02725 10.6527 8.71397 10.6527 9.49717C10.6527 10.1385 10.5165 10.689 10.2838 11.1487C10.0568 11.6084 9.68785 12.0227 9.27355 12.2951C8.85925 12.5732 8.35414 12.8002 7.80363 12.9364C7.25312 13.0727 6.70261 13.1635 6.1521 13.1635L0 13.1748V0.501709H6.01589ZM5.64699 5.64359C6.1521 5.64359 6.5664 5.50739 6.88422 5.2747C7.20204 5.04201 7.34393 4.63338 7.34393 4.12827C7.34393 3.85018 7.29852 3.57776 7.20772 3.39615C7.11691 3.21454 6.9807 3.07265 6.79342 2.93644C6.6118 2.84564 6.42452 2.75483 6.1975 2.70943C5.97049 2.66403 5.7378 2.66403 5.46538 2.66403H2.80363V5.64927C2.80363 5.64359 5.64699 5.64359 5.64699 5.64359ZM5.7832 11.0636C6.06129 11.0636 6.33371 11.0182 6.5664 10.9728C6.79342 10.9274 7.02611 10.8366 7.20772 10.6947C7.38933 10.5528 7.53121 10.4166 7.66742 10.1896C7.75823 9.96255 7.84904 9.68446 7.84904 9.36096C7.84904 8.71965 7.66742 8.25994 7.29852 7.93644C6.92963 7.65835 6.42452 7.52214 5.8286 7.52214H2.80363V11.0579H5.7832V11.0636Z" fill="#0067FF"></path>
                    <path d="M14.6481 11.0182C15.017 11.3871 15.5675 11.5687 16.2997 11.5687C16.8048 11.5687 17.2645 11.4325 17.6334 11.1998C18.0023 10.9217 18.2293 10.6493 18.3201 10.3712H20.5675C20.1986 11.4722 19.6481 12.2554 18.916 12.7605C18.1839 13.2202 17.3099 13.4927 16.2543 13.4927C15.5221 13.4927 14.8751 13.3564 14.2792 13.1238C13.6833 12.8967 13.2236 12.5732 12.8093 12.1135C12.395 11.6992 12.0772 11.1941 11.8899 10.5982C11.6629 10.0023 11.5664 9.36098 11.5664 8.62318C11.5664 7.93646 11.6572 7.28947 11.8899 6.69356C12.1226 6.09764 12.4404 5.59253 12.8547 5.13283C13.269 4.71853 13.7741 4.34963 14.3246 4.12261C14.9205 3.8956 15.5165 3.75371 16.2543 3.75371C17.0375 3.75371 17.7242 3.88992 18.3201 4.21342C18.916 4.53691 19.3757 4.90014 19.7446 5.45065C20.1135 5.95576 20.3859 6.55167 20.5732 7.19299C20.664 7.8343 20.7094 8.4813 20.664 9.21342H14.0068C14.0068 9.96257 14.2792 10.6493 14.6481 11.0182ZM17.5426 6.19412C17.2191 5.87063 16.714 5.68901 16.118 5.68901C15.7037 5.68901 15.3859 5.77982 15.1078 5.91603C14.8297 6.05224 14.6481 6.23953 14.4665 6.42114C14.2849 6.60275 14.1884 6.83544 14.143 7.06245C14.0976 7.28947 14.0522 7.47676 14.0522 7.65837H18.1839C18.0931 6.97732 17.8604 6.51762 17.5426 6.19412ZM13.5017 1.37573H18.6436V2.61296H13.5017V1.37573Z" fill="#0067FF"></path>
                    <path d="M24.2451 0.501709V5.27469H24.2905C24.614 4.72418 25.0227 4.35528 25.5278 4.12827C26.0329 3.90126 26.4926 3.75937 26.9977 3.75937C27.6844 3.75937 28.2349 3.85018 28.6492 4.03746C29.0635 4.21908 29.4324 4.49717 29.6594 4.82066C29.8865 5.14416 30.0737 5.55279 30.1645 6.01249C30.2554 6.4722 30.3008 6.97731 30.3008 7.57322V13.2202H27.7752V8.03292C27.7752 7.24972 27.639 6.69921 27.4063 6.33599C27.1736 5.97277 26.7707 5.7798 26.1748 5.7798C25.488 5.7798 24.9829 6.00682 24.7048 6.37572C24.3813 6.79002 24.2451 7.47674 24.2451 8.39615V13.2202H21.7196V0.501709H24.2451Z" fill="#0067FF"></path>
                    <path d="M32.1453 5.37127C32.4234 4.95696 32.7412 4.68455 33.1555 4.40645C33.5698 4.17944 34.0295 3.99215 34.5346 3.90135C35.0397 3.81054 35.5448 3.76514 36.0499 3.76514C36.5096 3.76514 36.9693 3.81054 37.4744 3.85594C37.9341 3.90135 38.3938 4.03755 38.7627 4.22484C39.177 4.40645 39.4494 4.68455 39.7275 5.00804C39.9545 5.33154 40.0964 5.79124 40.0964 6.34175V11.1658C40.0964 11.5801 40.1418 11.9944 40.1872 12.3576C40.2326 12.7265 40.3688 13.0444 40.5107 13.2317H37.9398C37.849 13.1408 37.8036 12.9536 37.7582 12.8174C37.7128 12.6811 37.7128 12.4939 37.7128 12.3576C37.2985 12.7719 36.8388 13.0444 36.2883 13.2317C35.7378 13.4133 35.1873 13.4587 34.6368 13.4587C34.177 13.4587 33.8082 13.4133 33.3995 13.2771C33.0306 13.1863 32.7128 12.999 32.3893 12.7719C32.1112 12.5449 31.8842 12.2668 31.7026 11.8979C31.5664 11.529 31.4756 11.1658 31.4756 10.6607C31.4756 10.1556 31.5664 9.6959 31.7537 9.3724C31.9353 9.04891 32.168 8.77649 32.4404 8.5438C32.7185 8.36219 33.0817 8.1749 33.4506 8.08409C33.8195 7.99329 34.1827 7.90248 34.597 7.85708C34.9659 7.81168 35.3291 7.76627 35.698 7.72087C36.0669 7.67547 36.3848 7.63006 36.6628 7.58466C36.9409 7.49385 37.168 7.40305 37.3496 7.26116C37.5312 7.12496 37.5766 6.93767 37.5766 6.66525C37.5766 6.38716 37.5312 6.16014 37.4404 6.02393C37.3496 5.88773 37.2134 5.74584 37.0715 5.65503C36.9353 5.56423 36.748 5.51883 36.5664 5.47342C36.3848 5.42802 36.1521 5.42802 35.9251 5.42802C35.42 5.42802 35.0511 5.51883 34.7786 5.75152C34.5005 5.97853 34.3189 6.34743 34.2735 6.80713H31.748C31.731 6.2396 31.9126 5.73449 32.1453 5.37127ZM37.1509 8.95242C37.0147 8.99783 36.8274 9.04323 36.6458 9.08863C36.4642 9.13404 36.2769 9.13404 36.0499 9.17944C35.8683 9.22484 35.6356 9.22484 35.454 9.27025C35.2724 9.31565 35.0851 9.36105 34.9035 9.40645C34.7219 9.45186 34.5346 9.54266 34.4438 9.63347C34.3076 9.72427 34.2168 9.86048 34.1203 10.0024C33.9841 10.184 33.9841 10.3713 33.9841 10.5983C33.9841 10.8253 34.0295 11.0126 34.1203 11.1488C34.2111 11.285 34.3019 11.4269 34.4438 11.5177C34.58 11.6085 34.7673 11.6539 34.9489 11.6993C35.1305 11.7447 35.3178 11.7447 35.5448 11.7447C36.0499 11.7447 36.4188 11.6539 36.6912 11.5177C36.9693 11.3361 37.1509 11.1488 37.2871 10.9218C37.4233 10.6948 37.5142 10.4621 37.5142 10.2351C37.5596 10.008 37.5596 9.82076 37.5596 9.68455V8.71973C37.4233 8.81054 37.2871 8.90702 37.1509 8.95242Z" fill="#0067FF"></path>
                    <path d="M43.899 3.99215V5.28046H43.9444C44.2679 4.72995 44.6765 4.36105 45.1816 4.13404C45.6867 3.90702 46.2372 3.76514 46.7423 3.76514C47.429 3.76514 47.9795 3.85594 48.3938 4.04323C48.8536 4.22484 49.177 4.50293 49.4041 4.82643C49.6311 5.14993 49.8184 5.55855 49.9546 6.01826C50.0454 6.47796 50.0908 6.98307 50.0908 7.57898V13.226H47.5652V8.03869C47.5652 7.25549 47.429 6.70498 47.1963 6.34175C46.9693 5.97285 46.555 5.74584 45.908 5.74584C45.2213 5.74584 44.7162 6.02393 44.3927 6.43256C44.0692 6.84686 43.933 7.53358 43.933 8.45299V13.2771H41.4075V3.99215C41.4188 3.99215 43.899 3.99215 43.899 3.99215Z" fill="#0067FF"></path>
                    <path d="M55.7491 5.6435C55.3348 5.6435 55.017 5.73431 54.7389 5.92159C54.4608 6.10321 54.2338 6.3359 54.0522 6.65372C53.8706 6.93181 53.7741 7.24963 53.6833 7.61853C53.5925 7.98743 53.5925 8.30525 53.5925 8.67415C53.5925 8.99765 53.6379 9.36087 53.6833 9.68437C53.7741 10.0533 53.8649 10.3257 54.0522 10.6038C54.2338 10.8819 54.4211 11.1089 54.6935 11.2905C54.9716 11.4721 55.2894 11.5686 55.7037 11.5686C56.2996 11.5686 56.7593 11.387 57.1282 11.0635C57.4517 10.74 57.6788 10.2803 57.7242 9.68437H60.1589C59.9773 10.9216 59.5176 11.841 58.7344 12.488C57.9512 13.1293 56.941 13.4528 55.7037 13.4528C55.017 13.4528 54.37 13.3166 53.8195 13.0839C53.2236 12.8569 52.7639 12.5334 52.3496 12.1191C51.9353 11.7048 51.6175 11.1997 51.3848 10.6492C51.1578 10.0533 51.0613 9.45735 51.0613 8.76496C51.0613 8.03283 51.1521 7.38584 51.3848 6.78993C51.6118 6.19401 51.8899 5.6435 52.3042 5.1838C52.7185 4.72409 53.2236 4.40059 53.7741 4.12818C54.37 3.90116 55.0113 3.75928 55.7491 3.75928C56.2996 3.75928 56.8047 3.85008 57.3099 3.98629C57.815 4.1225 58.2747 4.35519 58.6436 4.62761C59.0579 4.9057 59.3757 5.26893 59.6084 5.72863C59.8354 6.14293 59.9773 6.69344 60.0227 7.28936H57.5425C57.4461 6.19401 56.8502 5.6435 55.7491 5.6435Z" fill="#0067FF"></path>
                    <path d="M63.9671 11.0181C64.336 11.387 64.9319 11.5686 65.6186 11.5686C66.1237 11.5686 66.5834 11.4324 66.9523 11.1997C67.3212 10.9217 67.5482 10.6492 67.639 10.3711H69.8411C69.4722 11.4722 68.9217 12.2554 68.1895 12.7605C67.4574 13.2202 66.5834 13.4926 65.5278 13.4926C64.7957 13.4926 64.1487 13.3564 63.5528 13.1237C62.9569 12.8967 62.4972 12.5732 62.0829 12.1135C61.6686 11.6992 61.3507 11.1941 61.1635 10.5982C60.9364 10.0022 60.84 9.36093 60.84 8.62313C60.84 7.93641 60.9308 7.28942 61.1635 6.6935C61.3905 6.09759 61.714 5.59248 62.1283 5.13278C62.5426 4.71848 63.0477 4.34958 63.5982 4.12256C64.1941 3.89555 64.8354 3.75366 65.5278 3.75366C66.311 3.75366 66.9977 3.88987 67.5482 4.21337C68.1441 4.53686 68.6038 4.90009 68.9727 5.4506C69.3416 5.95571 69.6141 6.55162 69.8013 7.19294C69.9829 7.83425 70.0283 8.52665 69.9829 9.25877H63.3258C63.3258 9.96252 63.5982 10.6492 63.9671 11.0181ZM66.9069 6.19407C66.5834 5.87058 66.0783 5.68896 65.4824 5.68896C65.0681 5.68896 64.7503 5.77977 64.4722 5.91598C64.1941 6.05219 63.9671 6.23948 63.8309 6.42109C63.6947 6.6027 63.5528 6.83539 63.5074 7.0624C63.462 7.28942 63.4166 7.47671 63.4166 7.65832H67.5482C67.412 6.97727 67.1793 6.51757 66.9069 6.19407Z" fill="#0067FF"></path>
                    </g>
                    <defs>
                    <clipPath id="clip0_209_1801">
                    <rect width="70" height="12.9966" fill="white" transform="translate(0 0.501709)"></rect>
                    </clipPath>
                    </defs>
 </svg>