<svg width="26" height="29" viewBox="0 0 26 29" fill="none" xmlns="http://www.w3.org/2000/svg">
<path d="M5.77245 12.8915H6.02245V12.6415V1.58871C6.02396 1.22694 6.15635 0.884117 6.38448 0.634659C6.61227 0.385922 6.91563 0.250639 7.22635 0.25L18.773 0.250062C18.7731 0.250063 18.7733 0.250063 18.7734 0.250064C19.0838 0.251339 19.3863 0.38689 19.6135 0.63567C19.8413 0.885106 19.9732 1.22725 19.9747 1.58884C19.9747 1.589 19.9747 1.58916 19.9747 1.58932L19.9747 12.6417V12.8917H20.2247H24.5455C24.8567 12.8922 25.1598 13.0275 25.3877 13.2764L25.3877 13.2764C25.6161 13.5258 25.7485 13.8686 25.75 14.2304C25.75 14.2305 25.75 14.2307 25.75 14.2309L25.75 26.8751L25.75 26.8759C25.7511 27.2401 25.6197 27.5859 25.3913 27.8376C25.1632 28.0887 24.8583 28.2253 24.5453 28.2262L1.45219 28.2262C1.45206 28.2262 1.45193 28.2262 1.45179 28.2262C1.13956 28.2246 0.835392 28.0878 0.607964 27.8367L0.607875 27.8366C0.379698 27.585 0.248888 27.2399 0.250008 26.8758V26.8751V14.2303C0.251514 13.8688 0.383593 13.5267 0.611493 13.2772L0.611585 13.2771C0.838268 13.0286 1.14095 12.8931 1.45168 12.8915H5.77245ZM8.6882 2.93933H8.43819L8.4382 3.18934L8.43833 12.6417L8.43833 12.8917H8.68833H17.3114H17.5614V12.6417V3.1894V2.9394H17.3114H16.441H16.191V3.1894L16.191 6.69852C16.191 6.69868 16.191 6.69884 16.191 6.699C16.1895 7.06075 16.0571 7.40352 15.8287 7.65294C15.6008 7.90188 15.2979 8.03713 14.9869 8.03771H11.0104C10.7 8.03642 10.3973 7.90079 10.1705 7.6522L10.1704 7.6521C9.94249 7.40257 9.81042 7.06039 9.80891 6.69893V3.18933V2.93933H9.55891H8.6882ZM12.4721 2.93933H12.2221V3.18933V5.09829V5.34821L12.472 5.34829L13.5245 5.34865L13.7746 5.34873V5.09865V3.18933V2.93933H13.5246H12.4721ZM2.9135 15.5809H2.6635L2.6635 15.8309L2.66341 25.2832L2.66341 25.5332H2.91341H11.5481H11.7981V25.2832V15.8309V15.5809H11.5481H10.666H10.416V15.8309V19.3405C10.4145 19.7022 10.2826 20.0446 10.0549 20.2936L10.0548 20.2937C9.82758 20.5425 9.52503 20.6781 9.21447 20.6797C9.21433 20.6797 9.2142 20.6797 9.21407 20.6797H5.23613C5.23599 20.6797 5.23586 20.6797 5.23573 20.6797C4.92515 20.6781 4.6226 20.5425 4.39537 20.2937L4.39527 20.2936C4.16742 20.0444 4.0351 19.702 4.03388 19.3407V15.8309V15.5809H3.78388H2.9135ZM6.69707 15.5809H6.44703L6.44707 15.831L6.4474 17.7403L6.44745 17.9902H6.6974H7.75248H8.00248V17.7402V15.8309V15.5809H7.75248H6.69707ZM14.4496 15.5809H14.1996L14.1996 15.831L14.2003 25.2832L14.2003 25.5332H14.4503H23.0842H23.3342V25.2832V15.8309V15.5809H23.0842H22.2134H21.9634V15.8309L21.9634 19.3403C21.9634 19.3404 21.9634 19.3406 21.9634 19.3408C21.9622 19.7039 21.8287 20.0479 21.599 20.2976C21.3696 20.5466 21.0646 20.6808 20.7522 20.6796H20.7513L16.786 20.6796C16.7858 20.6796 16.7856 20.6796 16.7854 20.6796C16.4745 20.6786 16.1713 20.5434 15.9437 20.2946L15.9437 20.2946C15.7156 20.0451 15.5832 19.7027 15.5817 19.3405V15.8309V15.5809H15.3317H14.4496ZM18.2475 15.5809H17.9974L17.9975 15.831L17.9977 17.7403L17.9977 17.9902H18.2477H19.3002H19.5502V17.7402V15.8309V15.5809H19.3002H18.2475Z" fill="white" stroke="#3E3389" stroke-width="0.5"/>
</svg>
